{"title":"Avantasia Sao Paulo 2010 DVD NTSC","uid":6630693,"size":6690103158,"categoryP":"video","categoryS":"music_videos","magnet":"?xt=urn:btih:5b03596dcb220550dcbb4eb4d69e813a78f5cc1f&amp;dn=Avantasia+Sao+Paulo+2010+DVD+NTSC&amp;tr=udp%3A%2F%2Ftracker.openbittorrent.com%3A80&amp;tr=udp%3A%2F%2Fopen.demonii.com%3A1337&amp;tr=udp%3A%2F%2Ftracker.coppersurfer.tk%3A6969&amp;tr=udp%3A%2F%2Fexodus.desync.com%3A6969","seeders":2,"leechers":0,"uploader":"thumbsplus","files":13,"time":1314356898,"description":"This is another project by Cicero.\nHe has made this from HD videos (720 and 1080), and it is the complete show !\nThe quality overall is very nice. Cicero has authored also a bluray of this show, but my connection is not very good, I canÃ‚Â´t upload it.\nIf somebody has a seedbox or a very good connection and want to seed the BD, just send me a pm or post in the thread.\nThereÃ‚Â´s no cover for it, so feel free to post one and share !\nThis requires a double layer dvd. You can split it in 2 dvd5 or shrink it.\n\nTwisted Mind\nThe Scarecrow\n(with JÃƒÂ¸rn Lande)\nPromised Land\n(with JÃƒÂ¸rn Lande)\nSerpents in Paradise\n(with JÃƒÂ¸rn Lande)\nThe Story Ain't Over\n(with Bob Catley)\nPrelude\nReach Out for the Light\n(with Michael Kiske)\nThe Tower\n(with Michael Kiske)\nDeath Is Just a Feeling\n(with Kai Hansen)\nLost in Space\nIn Quest For\n(with Bob Catley)\nRunaway Train\n(with Jorn Lande,Michael Kiske,Bob Catley)\nDying for an Angel\n(with Michael Kiske)\nStargazers\n(with Jorn Lande,Michael Kiske,Oliver Hartmann)\nFarewell\n(with Amanda Somerville)\nThe Wicked Symphony\n(with Jorn Lande,Michael Kiske,Oliver Hartmann)\nEncore:\nThe Toy Master\n(with Kai Hansen)\nShelter From the Rain\n(with Michael Kiske,Kai Hansen on guitar)\nAvantasia\n(with Michael Kiske,Kai Hansen on guitar)\nSign of the Cross / The Seven Angels\n(with Jorn Lande,Michael Kiske,Bob Catley,Oliver Hartmann,Amanda Somerville,Kai Hansen on guitar)\n\n\ninformation of the first vob:\nGeneral\nComplete name : G:\\Avantasia Sao Paulo 2010 DVD NTSC\\VIDEO_TS\\VTS_01_1.VOB\nFormat : MPEG-PS\nFile size : 1 024 MiB\nDuration : 23mn 11s\nOverall bit rate : 6 174 Kbps\nWriting library : encoded by TMPGEnc Authoring Works 4 Version. 4.0.12.42\n\nVideo\nID : 224 (0xE0)\nFormat : MPEG Video\nFormat version : Version 2\nFormat profile : Main@Main\nFormat settings, BVOP : Yes\nFormat settings, Matrix : Custom\nDuration : 23mn 11s\nBit rate mode : Variable\nBit rate : 5 827 Kbps\nMaximum bit rate : 8 000 Kbps\nWidth : 720 pixels\nHeight : 480 pixels\nDisplay aspect ratio : 16:9\nFrame rate : 29.970 fps\nStandard : NTSC\nColor space : YUV\nChroma subsampling : 4:2:0\nBit depth : 8 bits\nScan type : Progressive\nCompression mode : Lossy\nBits/(Pixel*Frame) : 0.563\nStream size : 966 MiB (94%)\nWriting library : TMPGEnc Authoring Works 4 Version. 4.0.12.42\n\nAudio\nID : 189 (0xBD)-128 (0x80)\nFormat : AC-3\nFormat/Info : Audio Coding 3\nMode extension : CM (complete main)\nMuxing mode : DVD-Video\nDuration : 23mn 10s\nBit rate mode : Constant\nBit rate : 224 Kbps\nChannel(s) : 2 channels\nChannel positions : Front: L R\nSampling rate : 48.0 KHz\nBit depth : 16 bits\nCompression mode : Lossy\nStream size : 37.1 MiB (4%)\n\n\n","torrent":{"xt":"urn:btih:5b03596dcb220550dcbb4eb4d69e813a78f5cc1f","amp;dn":"Avantasia+Sao+Paulo+2010+DVD+NTSC","amp;tr":["udp%3A%2F%2Ftracker.openbittorrent.com%3A80","udp%3A%2F%2Fopen.demonii.com%3A1337","udp%3A%2F%2Ftracker.coppersurfer.tk%3A6969","udp%3A%2F%2Fexodus.desync.com%3A6969"],"infoHash":"5b03596dcb220550dcbb4eb4d69e813a78f5cc1f","infoHashBuffer":{"type":"Buffer","data":[91,3,89,109,203,34,5,80,220,187,78,180,214,158,129,58,120,245,204,31]},"announce":[],"urlList":[]}}